<svg xmlns="http://www.w3.org/2000/svg" viewBox="0 0 64 64"><g id="Layer_14" data-name="Layer 14"><path d="M52,28.77a3.23,3.23,0,0,0,0,6.46A3.23,3.23,0,0,0,52,28.77Z" id="id_101" style="fill: rgb(188, 139, 217);"></path><path d="M35.23,32a3.23,3.23,0,0,0-6.46,0A3.23,3.23,0,0,0,35.23,32Z" id="id_102" style="fill: rgb(89, 53, 110);"></path><path d="M52,48.77a3.23,3.23,0,0,0,0,6.46A3.23,3.23,0,0,0,52,48.77Z" id="id_103" style="fill: rgb(142, 84, 176);"></path><path d="M32,4a8,8,0,0,0-8,8c.39,10.6,15.61,10.6,16,0A8,8,0,0,0,32,4Z" id="id_104" style="fill: rgb(166, 132, 186);"></path><path d="M32,44a8,8,0,0,0-8,8c.39,10.6,15.61,10.6,16,0A8,8,0,0,0,32,44Z" id="id_105" style="fill: rgb(146, 95, 176);"></path><path d="M52,4a8,8,0,0,0-8,8c.39,10.6,15.61,10.6,16,0A8,8,0,0,0,52,4Z" id="id_106" style="fill: rgb(105, 45, 140);"></path><path d="M17.18,23.46c-1.1,3.08-3.56,9.34-4.24,12.3h-.07c-.67-3-3-9.21-4.07-12.3H6.33l-1,15H7.13c.23-3.68.63-9.6.69-13.05h0c.75,3.29,3,9.53,4.16,13h1.46c1.23-3.43,3.62-9.67,4.54-13h.07c0,3.52.41,9.37.6,13.05h1.88l-.93-15Z" id="id_107" style="fill: rgb(131, 67, 168);"></path></g></svg>
