<svg width="512" height="512" viewBox="0 0 512 512" fill="none" xmlns="http://www.w3.org/2000/svg">
<path fill-rule="evenodd" clip-rule="evenodd" d="M128 32C74.9807 32 32 74.9807 32 128V384C32 437.019 74.9807 480 128 480H384C437.019 480 480 437.019 480 384V128C480 74.9807 437.019 32 384 32H128ZM188 364V148H248C307.647 148 356 196.353 356 256C356 315.647 307.647 364 248 364H188ZM184 108C164.118 108 148 124.118 148 144V368C148 387.882 164.118 404 184 404H248C329.738 404 396 337.738 396 256C396 174.262 329.738 108 248 108H184Z" fill="#420752" id="id_101"></path>
</svg>